<svg width="66" height="37" viewBox="0 0 66 37" fill="none" xmlns="http://www.w3.org/2000/svg">
<g clip-path="url(#clip0_110_861)">
<path d="M4.15637 4.74965H0.986328V1.62573H4.15637V4.74965ZM4.10779 19.6889H1.03702V6.23262H4.10779V19.6889Z" fill="white"/>
<path d="M8.93992 19.6889H5.86914V6.23262H8.93992V10.1991C9.55238 7.45227 11.3011 5.86609 13.8164 5.86609C16.8027 5.86609 18.5092 8.11792 18.5092 12.017V19.6867H15.4384V12.3204C15.4384 9.82418 14.4352 8.57292 12.3972 8.57292C10.2198 8.57292 8.93992 10.0011 8.93992 12.5142V19.6846V19.6889Z" fill="white"/>
<path d="M21.4575 8.72244H19.525V6.23257H21.4575V5.89132C21.4575 2.59678 23.2125 0.831543 26.4797 0.831543C27.183 0.831543 27.9665 0.91159 28.7733 1.06958V3.5468C28.089 3.41831 27.4892 3.3509 26.9865 3.3509C25.2252 3.3509 24.3804 4.18086 24.3804 5.90818V6.23257H28.7733V8.72244H24.5282V19.6888H21.4575V8.72244Z" fill="white"/>
<path d="M35.597 5.86609C39.5928 5.86609 42.3151 8.68457 42.3151 12.9565C42.3151 17.2285 39.5865 20.0533 35.597 20.0533C31.6075 20.0533 28.8789 17.2285 28.8789 12.9565C28.8789 8.68457 31.6012 5.86609 35.597 5.86609ZM35.6034 17.3443C37.8674 17.3443 39.2317 15.7097 39.2317 12.9565C39.2317 10.2033 37.8674 8.57503 35.6034 8.57503C33.3393 8.57503 31.9624 10.2097 31.9624 12.9565C31.9624 15.7034 33.333 17.3443 35.6034 17.3443Z" fill="white"/>
<path d="M4.10569 35.7023H1.03491V17.6392H4.10569V35.7023Z" fill="white"/>
<path d="M12.4204 21.8795C16.4162 21.8795 19.1385 24.698 19.1385 28.97C19.1385 33.2419 16.4099 36.0667 12.4204 36.0667C8.43091 36.0667 5.70227 33.2419 5.70227 28.97C5.70227 24.698 8.42457 21.8795 12.4204 21.8795ZM12.4267 33.3578C14.6907 33.3578 16.055 31.7231 16.055 28.97C16.055 26.2168 14.6907 24.5885 12.4267 24.5885C10.1627 24.5885 8.78572 26.2231 8.78572 28.97C8.78572 31.7168 10.1564 33.3578 12.4267 33.3578Z" fill="white"/>
<path d="M27.0372 33.3578C28.9886 33.3578 30.0172 32.1255 30.3234 30.5077H33.3878C32.9781 33.699 30.6465 36.0667 27.0309 36.0667C23.0414 36.0667 20.3127 33.2419 20.3127 28.97C20.3127 24.698 23.035 21.8795 27.0309 21.8795C30.6465 21.8795 32.9781 24.2409 33.3878 27.4385H30.3234C30.0235 25.8208 28.995 24.5885 27.0372 24.5885C24.7668 24.5885 23.3962 26.2231 23.3962 28.97C23.3962 31.7168 24.7668 33.3578 27.0372 33.3578Z" fill="white"/>
<path d="M41.0289 21.8795C45.086 21.8795 47.5084 24.0513 47.5084 27.7187V35.7002H44.4376V32.1739C43.8082 34.5901 41.8125 36.0667 39.0711 36.0667C36.3298 36.0667 34.3171 34.4616 34.3171 32.0518C34.3171 29.642 36.3657 28.0305 39.7491 28.0305H44.4355V27.7187C44.4355 25.686 43.1197 24.4347 40.9656 24.4347C38.8114 24.4347 37.7786 25.4606 37.7786 27.0531H34.7142C34.7142 23.8744 37.1366 21.8774 41.0289 21.8774V21.8795ZM39.9286 30.1791C38.258 30.1791 37.3774 30.7521 37.3774 31.8453C37.3774 32.9934 38.3573 33.6337 40.125 33.6337C42.634 33.6337 44.4376 32.3467 44.4376 30.5646V30.1791H39.9286Z" fill="white"/>
<path d="M52.2813 35.7023H49.2106V17.6392H52.2813V35.7023Z" fill="white"/>
<path d="M58.6299 36.0225V31.4262H54.1737V29.168H58.6299V24.5717H61.2002V29.168H65.6543V31.4262H61.2002V36.0225H58.6299Z" fill="white"/>
</g>
<defs>
<clipPath id="clip0_110_861">
<rect width="66" height="37" fill="white"/>
</clipPath>
</defs>
</svg>
