<svg width="66" height="37" viewBox="0 0 66 37" fill="none" xmlns="http://www.w3.org/2000/svg">
<g clip-path="url(#clip0_128_1134)">
<path d="M3.21827 4.74965H0.0321045V1.62573H3.21827V4.74965ZM3.16945 19.6889H0.0830495V6.23262H3.16945V19.6889Z" fill="#0854E8"/>
<path d="M8.0261 19.6889H4.9397V6.23262H8.0261V10.1991C8.64168 7.45227 10.3993 5.86609 12.9274 5.86609C15.9289 5.86609 17.644 8.11792 17.644 12.017V19.6867H14.5576V12.3204C14.5576 9.82418 13.5493 8.57292 11.5009 8.57292C9.31245 8.57292 8.0261 10.0011 8.0261 12.5142V19.6846V19.6889Z" fill="#0854E8"/>
<path d="M20.6073 8.72244H18.665V6.23257H20.6073V5.89132C20.6073 2.59678 22.3713 0.831543 25.6551 0.831543C26.3619 0.831543 27.1494 0.91159 27.9603 1.06958V3.5468C27.2726 3.41831 26.6697 3.3509 26.1645 3.3509C24.3942 3.3509 23.5451 4.18086 23.5451 5.90818V6.23257H27.9603V8.72244H23.6937V19.6888H20.6073V8.72244Z" fill="#0854E8"/>
<path d="M34.8188 5.86609C38.835 5.86609 41.5711 8.68457 41.5711 12.9565C41.5711 17.2285 38.8286 20.0533 34.8188 20.0533C30.809 20.0533 28.0665 17.2285 28.0665 12.9565C28.0665 8.68457 30.8027 5.86609 34.8188 5.86609ZM34.8252 17.3443C37.1007 17.3443 38.472 15.7097 38.472 12.9565C38.472 10.2033 37.1007 8.57503 34.8252 8.57503C32.5497 8.57503 31.1657 10.2097 31.1657 12.9565C31.1657 15.7034 32.5433 17.3443 34.8252 17.3443Z" fill="#0854E8"/>
<path d="M3.16733 35.7023H0.0809326V17.6392H3.16733V35.7023Z" fill="#0854E8"/>
<path d="M11.5244 21.8795C15.5405 21.8795 18.2767 24.698 18.2767 28.97C18.2767 33.2419 15.5342 36.0667 11.5244 36.0667C7.51462 36.0667 4.77209 33.2419 4.77209 28.97C4.77209 24.698 7.50825 21.8795 11.5244 21.8795ZM11.5308 33.3578C13.8063 33.3578 15.1775 31.7231 15.1775 28.97C15.1775 26.2168 13.8063 24.5885 11.5308 24.5885C9.25523 24.5885 7.87123 26.2231 7.87123 28.97C7.87123 31.7168 9.24886 33.3578 11.5308 33.3578Z" fill="#0854E8"/>
<path d="M26.2154 33.3578C28.1768 33.3578 29.2106 32.1255 29.5184 30.5077H32.5984C32.1866 33.699 29.8431 36.0667 26.2091 36.0667C22.1993 36.0667 19.4568 33.2419 19.4568 28.97C19.4568 24.698 22.1929 21.8795 26.2091 21.8795C29.8431 21.8795 32.1866 24.2409 32.5984 27.4385H29.5184C29.2169 25.8208 28.1832 24.5885 26.2154 24.5885C23.9335 24.5885 22.5559 26.2231 22.5559 28.97C22.5559 31.7168 23.9335 33.3578 26.2154 33.3578Z" fill="#0854E8"/>
<path d="M40.2784 21.8795C44.3561 21.8795 46.7908 24.0513 46.7908 27.7187V35.7002H43.7044V32.1739C43.0719 34.5901 41.0659 36.0667 38.3107 36.0667C35.5554 36.0667 33.5325 34.4616 33.5325 32.0518C33.5325 29.642 35.5915 28.0305 38.992 28.0305H43.7023V27.7187C43.7023 25.686 42.3799 24.4347 40.2147 24.4347C38.0496 24.4347 37.0116 25.4606 37.0116 27.0531H33.9315C33.9315 23.8744 36.3663 21.8774 40.2784 21.8774V21.8795ZM39.1725 30.1791C37.4934 30.1791 36.6083 30.7521 36.6083 31.8453C36.6083 32.9934 37.5932 33.6337 39.3699 33.6337C41.8916 33.6337 43.7044 32.3467 43.7044 30.5646V30.1791H39.1725Z" fill="#0854E8"/>
<path d="M51.5881 35.7023H48.5017V17.6392H51.5881V35.7023Z" fill="#0854E8"/>
<path d="M57.9689 36.0225V31.4262H53.49V29.168H57.9689V24.5717H60.5522V29.168H65.029V31.4262H60.5522V36.0225H57.9689Z" fill="#0854E8"/>
</g>
<defs>
<clipPath id="clip0_128_1134">
<rect width="66" height="37" fill="white"/>
</clipPath>
</defs>
</svg>
