<svg width="32" height="32" viewBox="0 0 32 32" fill="none" xmlns="http://www.w3.org/2000/svg">
<g clip-path="url(#clip0_217_5027)">
<path d="M6.8125 12.2676C6.8125 12.7897 7.01992 13.2905 7.38913 13.6597C7.75835 14.0289 8.2591 14.2363 8.78125 14.2363C9.3034 14.2363 9.80415 14.0289 10.1734 13.6597C10.5426 13.2905 10.75 12.7897 10.75 12.2676C10.75 11.7454 10.5426 11.2447 10.1734 10.8755C9.80415 10.5062 9.3034 10.2988 8.78125 10.2988C8.2591 10.2988 7.75835 10.5062 7.38913 10.8755C7.01992 11.2447 6.8125 11.7454 6.8125 12.2676ZM21.25 12.2676C21.25 12.7897 21.4574 13.2905 21.8266 13.6597C22.1958 14.0289 22.6966 14.2363 23.2188 14.2363C23.7409 14.2363 24.2417 14.0289 24.6109 13.6597C24.9801 13.2905 25.1875 12.7897 25.1875 12.2676C25.1875 11.7454 24.9801 11.2447 24.6109 10.8755C24.2417 10.5062 23.7409 10.2988 23.2188 10.2988C22.6966 10.2988 22.1958 10.5062 21.8266 10.8755C21.4574 11.2447 21.25 11.7454 21.25 12.2676ZM16 -2.375C5.85273 -2.375 -2.375 5.85273 -2.375 16C-2.375 26.1473 5.85273 34.375 16 34.375C26.1473 34.375 34.375 26.1473 34.375 16C34.375 5.85273 26.1473 -2.375 16 -2.375ZM26.7871 26.7871C25.3844 28.1898 23.752 29.2891 21.935 30.0602C20.0605 30.8559 18.0631 31.2578 16 31.2578C13.9369 31.2578 11.9395 30.8559 10.0609 30.0602C8.2467 29.294 6.59874 28.1823 5.20879 26.7871C3.80605 25.3844 2.70684 23.752 1.93574 21.935C1.14414 20.0605 0.742188 18.0631 0.742188 16C0.742188 13.9369 1.14414 11.9395 1.93984 10.0609C2.70605 8.2467 3.81769 6.59874 5.21289 5.20879C6.61563 3.80605 8.24805 2.70684 10.065 1.93574C11.9395 1.14414 13.9369 0.742188 16 0.742188C18.0631 0.742188 20.0605 1.14414 21.9391 1.93984C23.7533 2.70605 25.4013 3.81769 26.7912 5.21289C28.1939 6.61563 29.2932 8.24805 30.0643 10.065C30.8559 11.9395 31.2578 13.9369 31.2578 16C31.2578 18.0631 30.8559 20.0605 30.0602 21.9391C29.2949 23.7526 28.1831 25.3994 26.7871 26.7871ZM22.2344 16.8613H20.2615C20.0893 16.8613 19.9416 16.9926 19.9293 17.1648C19.7734 19.1951 18.0713 20.7988 16 20.7988C13.9287 20.7988 12.2225 19.1951 12.0707 17.1648C12.0584 16.9926 11.9107 16.8613 11.7385 16.8613H9.76562C9.72112 16.8613 9.67707 16.8703 9.63615 16.8878C9.59523 16.9053 9.5583 16.9309 9.52761 16.9632C9.49691 16.9954 9.4731 17.0335 9.45761 17.0752C9.44212 17.117 9.43528 17.1614 9.4375 17.2059C9.61797 20.6635 12.4932 23.4238 16 23.4238C19.5068 23.4238 22.382 20.6635 22.5625 17.2059C22.5647 17.1614 22.5579 17.117 22.5424 17.0752C22.5269 17.0335 22.5031 16.9954 22.4724 16.9632C22.4417 16.9309 22.4048 16.9053 22.3638 16.8878C22.3229 16.8703 22.2789 16.8613 22.2344 16.8613Z" fill="#E5E8EB"/>
</g>
<rect x="1" y="1" width="30" height="30" rx="15" stroke="#E5E8EB" stroke-width="2"/>
<defs>
<clipPath id="clip0_217_5027">
<rect width="32" height="32" rx="16" fill="white"/>
</clipPath>
</defs>
</svg>
