<svg width="33" height="32" viewBox="0 0 33 32" fill="none" xmlns="http://www.w3.org/2000/svg">
<g clip-path="url(#clip0_252_4372)">
<path d="M3.6875 2.25H19.3125C20.52 2.25 21.5 3.23 21.5 4.4375V16.3125C21.5 16.8927 21.2695 17.4491 20.8593 17.8593C20.4491 18.2695 19.8927 18.5 19.3125 18.5H11.5763L8.35875 21.7162C8.10381 21.9702 7.7794 22.143 7.4264 22.2129C7.0734 22.2828 6.70761 22.2466 6.37514 22.1089C6.04268 21.9712 5.75841 21.7382 5.55818 21.4392C5.35795 21.1402 5.25072 20.7886 5.25 20.4288V18.5H3.6875C3.10734 18.5 2.55094 18.2695 2.1407 17.8593C1.73047 17.4491 1.5 16.8927 1.5 16.3125V4.4375C1.5 3.23 2.48 2.25 3.6875 2.25ZM3.375 4.4375V16.3125C3.375 16.485 3.515 16.625 3.6875 16.625H6.1875C6.43614 16.625 6.6746 16.7238 6.85041 16.8996C7.02623 17.0754 7.125 17.3139 7.125 17.5625V20.3L10.525 16.9C10.7006 16.7241 10.9389 16.6252 11.1875 16.625H19.3125C19.3954 16.625 19.4749 16.5921 19.5335 16.5335C19.5921 16.4749 19.625 16.3954 19.625 16.3125V4.4375C19.625 4.35462 19.5921 4.27513 19.5335 4.21653C19.4749 4.15792 19.3954 4.125 19.3125 4.125H3.6875C3.60462 4.125 3.52513 4.15792 3.46653 4.21653C3.40792 4.27513 3.375 4.35462 3.375 4.4375Z" fill="#F3F8FF"/>
<path d="M29.625 11.9375C29.625 11.8546 29.5921 11.7751 29.5335 11.7165C29.4749 11.6579 29.3954 11.625 29.3125 11.625H24.9375C24.6889 11.625 24.4504 11.5262 24.2746 11.3504C24.0988 11.1746 24 10.9361 24 10.6875C24 10.4389 24.0988 10.2004 24.2746 10.0246C24.4504 9.84877 24.6889 9.75 24.9375 9.75H29.3125C30.52 9.75 31.5 10.73 31.5 11.9375V23.8125C31.5 24.3927 31.2695 24.9491 30.8593 25.3593C30.4491 25.7695 29.8927 26 29.3125 26H27.75V27.9287C27.7499 28.2889 27.643 28.6409 27.4429 28.9403C27.2427 29.2396 26.9583 29.473 26.6256 29.6108C26.2929 29.7486 25.9268 29.7846 25.5736 29.7144C25.2204 29.6442 24.896 29.4708 24.6413 29.2162L21.4237 26H14.9375C14.3573 26 13.8009 25.7695 13.3907 25.3593C12.9805 24.9491 12.75 24.3927 12.75 23.8125V21.9812C12.75 21.7326 12.8488 21.4942 13.0246 21.3183C13.2004 21.1425 13.4389 21.0437 13.6875 21.0437C13.9361 21.0437 14.1746 21.1425 14.3504 21.3183C14.5262 21.4942 14.625 21.7326 14.625 21.9812V23.8125C14.625 23.985 14.765 24.125 14.9375 24.125H21.8125C22.0611 24.1252 22.2994 24.2241 22.475 24.4L25.875 27.8V25.0625C25.875 24.8139 25.9738 24.5754 26.1496 24.3996C26.3254 24.2238 26.5639 24.125 26.8125 24.125H29.3125C29.3954 24.125 29.4749 24.0921 29.5335 24.0335C29.5921 23.9749 29.625 23.8954 29.625 23.8125V11.9375Z" fill="#F3F8FF"/>
</g>
<defs>
<clipPath id="clip0_252_4372">
<rect width="30" height="30" fill="white" transform="translate(1.5 1)"/>
</clipPath>
</defs>
</svg>
