<svg width="21" height="28" viewBox="0 0 21 28" fill="none" xmlns="http://www.w3.org/2000/svg">
<path d="M1 4.65285C1 3.35796 1 2.71052 1.26999 2.35362C1.50519 2.0427 1.8647 1.8503 2.25386 1.82707C2.70058 1.8004 3.23929 2.15953 4.31669 2.8778L18.3374 12.225C19.2277 12.8185 19.6728 13.1152 19.8279 13.4892C19.9635 13.8163 19.9635 14.1838 19.8279 14.5108C19.6728 14.8848 19.2277 15.1815 18.3374 15.775L4.31669 25.1222C3.23928 25.8405 2.70058 26.1996 2.25386 26.1729C1.8647 26.1497 1.50519 25.9573 1.26999 25.6464C1 25.2895 1 24.6421 1 23.3472V4.65285Z" stroke="#F3F8FF" stroke-width="2" stroke-linecap="round" stroke-linejoin="round"/>
</svg>
